# AST/ASF file generated using VICON BodyLanguage
# -----------------------------------------------
:version 1.10
:name VICON
:units
  mass 1.0
  length 0.45
  angle deg
:documentation
   .ast/.asf automatically generated from VICON data using
   VICON BodyBuilder and BodyLanguage model FoxedUp or BRILLIANT.MOD
:root
   order TX TY TZ RX RY RZ
   axis XYZ
   position 0 0 0  
   orientation 0 0 0 
:bonedata
  begin
     id 1 
     name lhipjoint
     direction 0.662698 -0.695252 0.27831 
     length 2.53073 
     axis 0 0 0  XYZ
  end
  begin
     id 2 
     name lfemur
     direction 0.34202 -0.939693 0  
     length 7.16147  
     axis 0 0 20  XYZ
    dof rx ry rz
    limits (-160.0 20.0)
           (-70.0 70.0)
           (-60.0 70.0)
  end
  begin
     id 3 
     name ltibia
     direction 0.34202 -0.939693 0   
     length 7.63967   
     axis 0 0 20   XYZ
    dof rx
    limits (-10.0 170.0)
  end
  begin
     id 4 
     name lfoot
     direction 0.0938457 -0.257721 0.961651   
     length 1.89793   
     axis -90 7.62852e-016 20   XYZ
    dof rx rz
    limits (-45.0 90.0)
           (-70.0 20.0)
  end
  begin
     id 5 
     name ltoes
     direction -0.00116841 -0.0030592 0.999995   
     length 0.955649   
     axis -90 7.62852e-016 20   XYZ
    dof rx
    limits (-90.0 20.0)
  end
  begin
     id 6 
     name rhipjoint
     direction -0.649445 -0.705948 0.282592   
     length 2.49238  
     axis 0 0 0  XYZ 
  end
  begin
     id 7 
     name rfemur
     direction -0.34202 -0.939693 0   
     length 6.90728   
     axis 0 0 -20   XYZ
    dof rx ry rz
    limits (-160.0 20.0)
           (-70.0 70.0)
           (-70.0 60.0)
  end
  begin
     id 8 
     name rtibia
     direction -0.34202 -0.939693 0   
     length 7.72868   
     axis 0 0 -20   XYZ
    dof rx
    limits (-10.0 170.0)
 end
 begin
     id 9 
     name rfoot
     direction -0.0920068 -0.252865 0.963117   
     length 1.97476  
     axis -90 -7.62852e-016 -20   XYZ
    dof rx rz
    limits (-45.0 90.0)
           (-20.0 70.0)
  end
  begin
     id 10 
     name rtoes
     direction 0.000391322 0.00230649 0.999997   
     length 0.992641   
     axis -90 -7.62852e-016 -20   XYZ
    dof rx
    limits (-90.0 20.0)
  end
  begin
     id 11 
     name lowerback
     direction -0.00875327 0.998321 -0.0572635   
     length 2.20024   
     axis 0 0 0   XYZ
    dof rx ry rz
    limits (-20.0 45.0)
           (-30.0 30.0)
           (-30.0 30.0)
  end
  begin
     id 12 
     name upperback
     direction 0.00753931 0.999972 -0.000360425   
     length 2.20538   
     axis 0 0 0   XYZ
    dof rx ry rz
    limits (-20.0 45.0)
           (-30.0 30.0)
           (-30.0 30.0)
  end
  begin
     id 13 
     name thorax
     direction 0.0117767 0.999601 0.0256663   
     length 2.21508   
     axis 0 0 0   XYZ
    dof rx ry rz
    limits (-20.0 45.0)
           (-30.0 30.0)
           (-30.0 30.0)
  end
  begin
     id 14 
     name lowerneck
     direction 0.060228 0.994909 0.0807986   
     length 1.7607   
     axis 0 0 0   XYZ
    dof rx ry rz
    limits (-20.0 45.0)
           (-30.0 30.0)
           (-30.0 30.0)
  end
  begin
     id 15 
     name upperneck
     direction -0.0563647 0.959594 -0.275685   
     length 1.75612   
     axis 0 0 0   XYZ
    dof rx ry rz
    limits (-20.0 45.0)
           (-30.0 30.0)
           (-30.0 30.0)
  end
  begin
     id 16
     name head
     direction -0.0161544 0.99458 -0.102714  
     length 1.79288  
     axis 0 0 0   XYZ
    dof rx ry rz
    limits (-20.0 45.0)
           (-30.0 30.0)
           (-30.0 30.0)
  end
  begin
     id 17 
     name lclavicle
     direction 0.93913 0.332189 -0.087669  
     length 3.52087  
     axis 0 0 0   XYZ
    dof ry rz
    limits (-20.0 10.0)
           (0.0 20.0)
  end
  begin
     id 18 
     name lhumerus
     direction 1 -4.48974e-011 -2.70836e-027   
     length 5.35289   
     axis -180 -30 -90   XYZ
    dof rx ry rz
    limits (-60.0 90.0)
           (-90.0 90.0)
           (-90.0 90.0)
  end
  begin
     id 19
     name lradius
     direction 1 -4.48961e-011 -9.76021e-027   
     length 3.27727   
     axis -180 -30 -90   XYZ
    dof rx
    limits (-10.0 170.0)
  end
  begin
     id 20
     name lwrist
     direction 1 -4.49103e-011 -2.23668e-026   
     length 1.63864   
     axis 1.44924e-014 90 90   XYZ
    dof ry
    limits (-180.0 0.0)
 end
  begin
     id 21 
     name lhand
     direction 1 3.0697e-005 0.000161777   
     length 0.54443   
     axis 2.85318e-014 90 90   XYZ
    dof rx rz
    limits (-90.0 90.0)
           (-45.0 45.0)
  end
  begin
     id 22 
     name lfingers
     direction 1 -4.49027e-011 -8.9447e-026   
     length 0.438912   
     axis 5.70628e-014 90 90   XYZ
    dof rx
    limits (0.0 90.0)
  end
  begin
     id 23
     name lthumb
     direction 0.707058 2.6516e-005 0.707156   
     length 0.630274   
     axis -90 45 -3.53137e-014   XYZ
    dof rx rz
    limits (-45.0 45.0)
           (-45.0 45.0)
  end
  begin
     id 24 
     name rclavicle
     direction -0.95274 0.284984 -0.105215   
     length 3.43401  
     axis 0 0 0   XYZ 
    dof ry rz
    limits (-10.0 20.0)
           (-20.0 0.0)
  end
  begin
     id 25 
     name rhumerus
     direction -0.999999 -0.000575019 -0.00106829  
     length 5.52077   
     axis -180 30 90   XYZ
    dof rx ry rz
    limits (-90.0 60.0)
           (-90.0 90.0)
           (-90.0 90.0)
  end
  begin
     id 26 
     name rradius
     direction -1 -4.4879e-011 -6.35415e-027   
     length 3.32364   
     axis -180 30 90   XYZ
    dof rx
    limits (-10.0 170.0)
  end
  begin
     id 27 
     name rwrist
     direction -1 -4.49048e-011 -9.98542e-027   
     length 1.66182   
     axis 6.32482e-015 -90 -90   XYZ
    dof ry
    limits (-180.0 0.0)
  end
  begin
     id 28
     name rhand
     direction -1 -4.48978e-011 -1.99771e-026   
     length 0.732235   
     axis 1.27479e-014 -90 -90   XYZ
    dof rx rz
    limits (-90.0 90.0)
           (-45.0 45.0)
  end
  begin
     id 29
     name rfingers
     direction -1 -4.49144e-011 -3.99245e-026   
     length 0.590347   
     axis 2.5496e-014 -90 -90   XYZ
    dof rx
    limits (0.0 90.0)
  end
  begin
     id 30
     name rthumb
     direction -0.707107 -6.35121e-011 0.707107   
     length 0.847624   
     axis -90 -45 -2.82974e-014   XYZ
    dof rx rz
    limits (-45.0 45.0)
           (-45.0 45.0)
  end
:hierarchy
  begin
    root lhipjoint rhipjoint lowerback
    lhipjoint lfemur
    lfemur ltibia
    ltibia lfoot
    lfoot ltoes
    rhipjoint rfemur
    rfemur rtibia
    rtibia rfoot
    rfoot rtoes
    lowerback upperback
    upperback thorax
    thorax lowerneck lclavicle rclavicle
    lowerneck upperneck
    upperneck head
    lclavicle lhumerus
    lhumerus lradius
    lradius lwrist
    lwrist lhand lthumb
    lhand lfingers
    rclavicle rhumerus
    rhumerus rradius
    rradius rwrist
    rwrist rhand rthumb
    rhand rfingers
  end

#!OML:ASF G:\Work\Work\Patient Classification 1\Elijah\terrain1\Elijah.ASF
:FULLY-SPECIFIED
:DEGREES
4132
root -5.24813 20.4452 -13.5803 8.65889 -2.87273 -0.458316
lowerback 3.4578 -0.102344 4.42203
upperback 7.34949 0.183945 -7.93809
thorax 5.87631 0.628348 -11.0721
lowerneck -18.1411 13.8381 12.0771
upperneck 27.3759 19.3107 -9.81771
head 14.7004 8.3442 -2.15872
rclavicle -3.18055e-015 -3.18055e-015
rhumerus -26.8035 6.72966 -96.4593
rradius 35.3724
rwrist 7.10394
rhand -11.2836 25.2489
rfingers 7.12502
rthumb 14.7472 -4.20649
lclavicle -3.18055e-015 -3.18055e-015
lhumerus -26.2348 2.60492 69.7002
lradius 55.0734
lwrist 13.5753
lhand -18.0829 29.7557
lfingers 7.12502
lthumb 8.1903 59.5769
rfemur -18.6973 -6.57798 19.078
rtibia 68.51
rfoot 6.66494 1.5035
rtoes -32.0678
lfemur -39.1595 -1.66188 -23.8369
ltibia 43.9792
lfoot -14.1282 -9.1948
ltoes -3.668
4133
root -5.2412 20.4748 -13.4654 8.47478 -2.71252 -0.314695
lowerback 3.5936 -0.0603122 4.10664
upperback 7.28624 0.237787 -7.87938
thorax 5.7322 0.625751 -10.8089
lowerneck -17.89 13.7173 12.2299
upperneck 27.4617 19.1361 -9.84596
head 14.6847 8.2928 -2.24798
rclavicle -2.78299e-014 -3.49861e-014
rhumerus -27.4369 5.76972 -96.1036
rradius 35.0724
rwrist 7.35474
rhand -9.38274 22.9152
rfingers 7.12502
rthumb 16.578 -6.39672
lclavicle -2.78299e-014 -3.49861e-014
lhumerus -26.412 2.16784 69.997
lradius 56.0939
lwrist 13.6499
lhand -18.4687 31.7254
lfingers 7.12502
lthumb 7.81796 61.5608
rfemur -20.1631 -6.95507 18.9534
rtibia 70.3219
rfoot 6.04317 2.47564
rtoes -31.2182
lfemur -38.2527 -1.75302 -24.0514
ltibia 43.5111
lfoot -14.1267 -9.3119
ltoes -3.82118
4134
root -5.23166 20.5066 -13.354 8.36295 -2.43085 0.00873421
lowerback 3.6824 -0.0684976 3.60578
upperback 7.22993 0.223567 -7.82562
thorax 5.60354 0.58003 -10.4418
lowerneck -17.7587 13.6066 12.3438
upperneck 27.502 19.0103 -9.98951
head 14.6921 8.2394 -2.35823
rclavicle -3.18055e-015 2.8625e-014
rhumerus -27.8549 5.32454 -95.7494
rradius 34.6714
rwrist 6.77801
rhand -10.7508 24.9851
rfingers 7.12502
rthumb 15.2605 -4.43199
lclavicle -3.18055e-015 2.8625e-014
lhumerus -26.4369 1.80985 70.3454
lradius 56.6857
lwrist 13.3743
lhand -18.639 29.8597
lfingers 7.12502
lthumb 7.65361 59.7012
rfemur -21.5584 -7.66254 18.6
rtibia 72.1443
rfoot 5.62771 3.52824
rtoes -29.89
lfemur -37.4419 -2.07278 -24.4385
ltibia 43.0623
lfoot -14.3105 -9.33941
ltoes -3.58352
4135
root -5.22596 20.5243 -13.2511 8.26678 -2.15843 0.391352
lowerback 3.92324 -0.081863 3.02366
upperback 7.10517 0.196648 -7.78698
thorax 5.31177 0.516532 -10.0409
lowerneck -17.5109 13.4816 12.4854
upperneck 27.526 18.8585 -10.1133
head 14.6638 8.18675 -2.47794
rclavicle 3.18055e-015 2.22639e-014
rhumerus -28.2052 4.93129 -95.4314
rradius 33.925
rwrist 6.80078
rhand -12.0779 26.3179
rfingers 7.12502
rthumb 13.982 -3.19188
lclavicle 3.18055e-015 2.22639e-014
lhumerus -26.198 1.57165 70.6686
lradius 56.9915
lwrist 13.4622
lhand -18.305 28.7352
lfingers 7.12502
lthumb 7.97594 58.5647
rfemur -22.8403 -8.32177 18.212
rtibia 73.9014
rfoot 5.47712 4.04338
rtoes -29.0845
lfemur -36.7225 -2.43543 -24.8675
ltibia 42.6561
lfoot -14.6472 -9.34013
ltoes -3.04401
4136
root -5.22673 20.5444 -13.1411 8.14422 -2.42696 0.468133
lowerback 4.14014 0.102888 2.61364
upperback 6.97996 0.430923 -7.71093
thorax 5.08853 0.597465 -9.70415
lowerneck -17.5459 13.4083 12.559
upperneck 27.6617 18.7427 -10.1014
head 14.7227 8.14227 -2.50914
rclavicle 2.3059e-014 5.88403e-014
rhumerus -28.9669 4.29377 -95.0549
rradius 34.0651
rwrist 6.64981
rhand -12.1357 26.5709
rfingers 7.12502
rthumb 13.9263 -2.94272
lclavicle 2.3059e-014 5.88403e-014
lhumerus -25.9392 1.28276 71.0025
lradius 57.1871
lwrist 13.5242
lhand -18.6519 27.103
lfingers 7.12502
lthumb 7.64111 56.9449
rfemur -24.1604 -8.27173 18.2148
rtibia 75.5644
rfoot 5.25657 4.3827
rtoes -27.9808
lfemur -35.9519 -2.30387 -24.9713
ltibia 42.2824
lfoot -15.0278 -9.22417
ltoes -3.13071
4137
root -5.22205 20.5676 -13.0256 8.15645 -2.30674 0.489185
lowerback 3.97276 0.166668 2.36609
upperback 6.96007 0.512678 -7.57736
thorax 5.1678 0.622883 -9.4068
lowerneck -17.912 13.3216 12.5196
upperneck 27.8482 18.589 -10.0241
head 14.8471 8.06177 -2.48771
rclavicle 2.38542e-015 1.27222e-014
rhumerus -29.818 3.74103 -94.6205
rradius 34.4469
rwrist 6.31039
rhand -11.5482 25.2128
rfingers 7.12502
rthumb 14.4923 -4.26111
lclavicle 2.38542e-015 1.27222e-014
lhumerus -25.7437 1.04258 71.287
lradius 57.9106
lwrist 12.4204
lhand -17.1448 29.305
lfingers 7.12502
lthumb 9.09563 59.0889
rfemur -25.5672 -8.64152 18.3242
rtibia 77.1561
rfoot 5.4133 4.07804
rtoes -28.5341
lfemur -35.3188 -2.51323 -24.9999
ltibia 41.912
lfoot -15.3048 -9.11818
ltoes -3.49687
4138
root -5.21718 20.5878 -12.9169 7.98761 -2.29311 0.70321
lowerback 4.0366 0.252585 1.85223
upperback 6.93749 0.618596 -7.45645
thorax 5.11032 0.642003 -8.96575
lowerneck -17.6279 13.0727 12.5658
upperneck 27.6881 18.2522 -10.1342
head 14.6871 7.93181 -2.63279
rclavicle -1.27222e-014 2.70347e-014
rhumerus -29.8726 3.44166 -94.1991
rradius 33.6518
rwrist 5.88888
rhand -11.0049 23.2618
rfingers 7.12502
rthumb 15.0158 -6.17372
lclavicle -1.27222e-014 2.70347e-014
lhumerus -25.933 0.647433 71.6634
lradius 58.8067
lwrist 12.2384
lhand -16.3048 30.8349
lfingers 7.12502
lthumb 9.90613 60.5819
rfemur -26.8742 -8.99764 18.163
rtibia 78.7194
rfoot 5.28575 4.02586
rtoes -28.1841
lfemur -34.4795 -2.63336 -25.2704
ltibia 41.5254
lfoot -15.5645 -9.07941
ltoes -3.90391
4139
root -5.21673 20.6058 -12.8093 7.83606 -2.2408 1.23917
lowerback 4.15765 0.322339 0.994642
upperback 6.86772 0.698034 -7.42779
thorax 4.95942 0.630078 -8.42597
lowerneck -17.0418 12.8215 12.6336
upperneck 27.2415 17.9235 -10.3168
head 14.3497 7.81974 -2.82095
rclavicle -1.82882e-014 1.59028e-015
rhumerus -30.2855 3.23807 -93.8347
rradius 33.1329
rwrist 5.27938
rhand -10.0249 21.4142
rfingers 7.12502
rthumb 15.9596 -7.94828
lclavicle -1.82882e-014 1.59028e-015
lhumerus -26.0093 0.321905 72.0748
lradius 59.3301
lwrist 12.31
lhand -16.3895 30.2977
lfingers 7.12502
lthumb 9.8244 60.0485
rfemur -28.2256 -9.42993 17.6836
rtibia 80.2554
rfoot 5.07719 4.56446
rtoes -26.2027
lfemur -33.6575 -2.80141 -25.8824
ltibia 41.1584
lfoot -15.8038 -9.10414
ltoes -4.17365
4140
root -5.21 20.6212 -12.7013 7.76473 -1.85864 1.58546
lowerback 4.20587 0.280527 0.506689
upperback 6.7933 0.630847 -7.36799
thorax 4.82987 0.56477 -8.07145
lowerneck -17.5493 12.9212 12.6886
upperneck 27.8543 18.0834 -10.2869
head 14.7557 7.85601 -2.7566
rclavicle 4.77083e-015 -3.33958e-014
rhumerus -30.999 2.98947 -93.4861
rradius 33.1171
rwrist 4.81716
rhand -12.6003 24.1154
rfingers 7.12502
rthumb 13.4785 -5.42849
lclavicle 4.77083e-015 -3.33958e-014
lhumerus -25.6209 0.0755348 72.5106
lradius 59.3507
lwrist 12.1493
lhand -16.6275 29.7929
lfingers 7.12502
lthumb 9.59473 59.5544
rfemur -29.4901 -10.1682 17.4725
rtibia 81.6623
rfoot 4.80851 4.27652
rtoes -26.4238
lfemur -32.9557 -3.3042 -26.2575
ltibia 40.8126
lfoot -16.0498 -9.09557
ltoes -2.10662
4141
root -5.20284 20.6342 -12.6039 7.70749 -2.41281 1.35403
lowerback 4.38271 0.55839 0.456103
upperback 6.60953 0.97932 -7.23359
thorax 4.57867 0.723221 -7.89151
lowerneck -17.441 12.8313 12.7154
upperneck 27.9135 17.9771 -10.3183
head 14.7508 7.81512 -2.80446
rclavicle -8.74653e-015 -6.36111e-015
rhumerus -31.7838 2.41806 -93.0014
rradius 33.5693
rwrist 3.85133
rhand -12.3011 24.822
rfingers 7.12502
rthumb 13.7668 -4.70254
lclavicle -8.74653e-015 -6.36111e-015
lhumerus -25.9169 -0.387448 72.8674
lradius 60.1199
lwrist 12.3733
lhand -16.7736 29.3283
lfingers 7.12502
lthumb 9.45383 59.0962
rfemur -31.1021 -9.88575 17.8858
rtibia 82.9809
rfoot 4.72358 3.94469
rtoes -27.1027
lfemur -32.3777 -3.15279 -26.0591
ltibia 40.5772
lfoot -16.4595 -8.70246
ltoes -1.99483
